<?xml version='1.0' encoding='UTF-8'?>
<svg xmlns="http://www.w3.org/2000/svg" width="32" height="32" viewBox="149 2038 32 32" fill="none">
  <path xmlns:xlink="http://www.w3.org/1999/xlink" d="M166.072 2039C165.788 2039 165.515 2039.11 165.314 2039.31C165.113 2039.51 165 2039.79 165 2040.07V2052.93C165 2053.21 165.113 2053.49 165.314 2053.69C165.515 2053.89 165.788 2054 166.072 2054H178.929C179.213 2054 179.485 2053.89 179.686 2053.69C179.887 2053.49 180 2053.21 180 2052.93C180 2051.1 179.64 2049.29 178.94 2047.6C178.24 2045.91 177.214 2044.37 175.921 2043.08C174.627 2041.79 173.092 2040.76 171.402 2040.06C169.712 2039.36 167.901 2039 166.072 2039ZM167.143 2051.86V2041.19C169.888 2041.44 172.458 2042.64 174.407 2044.59C176.356 2046.54 177.56 2049.11 177.81 2051.86H167.143ZM162.858 2044.4C162.858 2044.26 162.827 2044.11 162.766 2043.97C162.706 2043.84 162.619 2043.71 162.509 2043.61C162.399 2043.51 162.269 2043.44 162.128 2043.39C161.987 2043.34 161.838 2043.32 161.69 2043.34C159.256 2043.56 156.937 2044.47 155.002 2045.96C153.068 2047.46 151.599 2049.47 150.767 2051.77C149.936 2054.06 149.776 2056.55 150.307 2058.94C150.838 2061.32 152.038 2063.5 153.766 2065.23C155.493 2066.96 157.678 2068.16 160.063 2068.69C162.448 2069.22 164.935 2069.06 167.232 2068.23C169.53 2067.4 171.543 2065.93 173.036 2064C174.528 2062.06 175.439 2059.74 175.661 2057.31C175.674 2057.16 175.656 2057.01 175.609 2056.87C175.561 2056.73 175.485 2056.6 175.385 2056.49C175.285 2056.38 175.163 2056.29 175.027 2056.23C174.891 2056.17 174.744 2056.14 174.596 2056.14H162.858V2044.4ZM152.143 2056.14C152.143 2053.67 152.996 2051.28 154.558 2049.37C156.12 2047.45 158.295 2046.14 160.715 2045.64V2057.21C160.715 2057.5 160.828 2057.77 161.028 2057.97C161.229 2058.17 161.502 2058.29 161.786 2058.29H173.357C172.82 2060.88 171.339 2063.19 169.202 2064.75C167.065 2066.32 164.422 2067.04 161.785 2066.78C159.147 2066.51 156.702 2065.27 154.921 2063.31C153.141 2061.35 152.151 2058.79 152.143 2056.14Z" fill="#101010"/>
</svg>
