<svg xmlns="http://www.w3.org/2000/svg" viewBox="256 1440 252 75" fill="none" role="img" aria-label="The Drafroom">
  <path d="M315.491 1440.29L256.133 1454.18V1513.63H315.491V1440.29Z" fill="#544D4D"/>
<path d="M333.764 1444.86V1513.63H322.945V1440.29L333.764 1444.86Z" fill="#544D4D"/>
<path d="M362.09 1456.83V1468.89L354.119 1466.32V1453.46L362.09 1456.83Z" fill="#544D4D"/>
<path d="M348.994 1451.29V1464.67L340.027 1461.78V1447.51L348.994 1451.29Z" fill="#544D4D"/>
<path d="M411.03 1445.93V1482.44H402.408V1480.39C401.74 1480.95 400.993 1481.44 400.166 1481.87C398.595 1482.63 396.852 1483.02 394.936 1483.02C392.291 1483.02 389.935 1482.38 387.865 1481.12C385.834 1479.86 384.225 1478.13 383.037 1475.95C381.888 1473.76 381.313 1471.27 381.312 1468.47C381.312 1465.68 381.888 1463.19 383.037 1461C384.225 1458.82 385.834 1457.09 387.865 1455.83C389.935 1454.56 392.291 1453.93 394.936 1453.93C396.851 1453.93 398.576 1454.3 400.108 1455.02C400.888 1455.38 401.597 1455.82 402.235 1456.32V1440.86L411.03 1445.93ZM396.545 1461.86C395.319 1461.86 394.227 1462.15 393.269 1462.73C392.349 1463.3 391.601 1464.09 391.026 1465.08C390.49 1466.08 390.222 1467.21 390.222 1468.47C390.222 1469.74 390.49 1470.87 391.026 1471.87C391.563 1472.86 392.311 1473.65 393.269 1474.22C394.226 1474.8 395.299 1475.08 396.487 1475.08C397.752 1475.08 398.844 1474.82 399.764 1474.28C400.683 1473.71 401.412 1472.92 401.948 1471.92C402.485 1470.93 402.753 1469.78 402.753 1468.47C402.753 1467.17 402.485 1466.04 401.948 1465.08C401.45 1464.09 400.722 1463.3 399.764 1462.73C398.844 1462.15 397.771 1461.86 396.545 1461.86Z" fill="#544D4D"/>
<path d="M429.766 1453.93C431.107 1453.93 432.275 1454.14 433.271 1454.56C434.306 1454.95 435.206 1455.56 435.973 1456.4L430.742 1463.01C430.359 1462.59 429.88 1462.27 429.306 1462.04C428.731 1461.81 428.079 1461.69 427.351 1461.69C425.895 1461.69 424.726 1462.15 423.845 1463.07C423.002 1463.95 422.58 1465.29 422.58 1467.09V1475.76L413.785 1478.69V1454.51H422.58V1456.63C424.304 1454.83 426.7 1453.93 429.766 1453.93Z" fill="#544D4D"/>
<path d="M445.753 1453.93C447.63 1453.93 449.316 1454.29 450.811 1455.02C451.816 1455.5 452.697 1456.1 453.455 1456.83V1454.5H462.077V1478.68L453.455 1481.55V1480.17C452.721 1480.87 451.859 1481.45 450.868 1481.92C449.335 1482.65 447.63 1483.02 445.753 1483.02C443.185 1483.02 440.885 1482.38 438.854 1481.12C436.862 1479.85 435.272 1478.13 434.084 1475.95C432.934 1473.76 432.359 1471.27 432.359 1468.47C432.359 1465.68 432.934 1463.18 434.084 1461C435.272 1458.82 436.862 1457.09 438.854 1455.83C440.885 1454.56 443.185 1453.93 445.753 1453.93ZM479.188 1482.44H479.123L479.188 1482.42V1482.44ZM482.751 1440.08C484.667 1440.08 486.334 1440.4 487.752 1441.06C489.208 1441.67 490.473 1442.53 491.546 1443.64L486.027 1449.16C485.644 1448.78 485.203 1448.49 484.705 1448.3C484.245 1448.07 483.689 1447.95 483.038 1447.95C481.85 1447.95 480.911 1448.3 480.222 1448.99C479.532 1449.68 479.188 1450.62 479.188 1451.8V1454.51H487.234V1461.98H479.188V1472.98L470.393 1475.91V1461.98H464.242V1454.51H470.393V1452.09C470.393 1449.83 470.891 1447.8 471.887 1446C472.921 1444.16 474.359 1442.72 476.198 1441.69C478.038 1440.61 480.222 1440.08 482.751 1440.08ZM447.592 1461.86C446.366 1461.86 445.273 1462.15 444.315 1462.72C443.396 1463.26 442.648 1464.03 442.073 1465.02C441.537 1466.02 441.269 1467.17 441.269 1468.47C441.269 1469.74 441.537 1470.87 442.073 1471.86C442.61 1472.86 443.357 1473.65 444.315 1474.22C445.273 1474.8 446.346 1475.08 447.534 1475.08C449.412 1475.08 450.926 1474.47 452.075 1473.24C453.225 1471.98 453.8 1470.39 453.8 1468.47C453.8 1467.17 453.532 1466.02 452.995 1465.02C452.497 1464.03 451.769 1463.26 450.811 1462.72C449.891 1462.15 448.818 1461.86 447.592 1461.86Z" fill="#544D4D"/>
<path d="M496.064 1484.78C498.21 1484.78 500.107 1485.24 501.755 1486.16C503.441 1487.04 504.764 1488.32 505.722 1490.01C506.718 1491.66 507.216 1493.65 507.216 1495.99V1509.54L498.421 1512.47V1496.96C498.421 1495.55 497.981 1494.45 497.1 1493.69C496.257 1492.88 495.202 1492.48 493.938 1492.48C493.056 1492.48 492.271 1492.67 491.581 1493.05C490.891 1493.4 490.336 1493.9 489.914 1494.55C489.531 1495.2 489.339 1496.01 489.339 1496.96V1513.29H480.545V1496.96C480.545 1495.55 480.104 1494.45 479.223 1493.69C478.38 1492.88 477.326 1492.48 476.062 1492.48C475.18 1492.48 474.394 1492.67 473.704 1493.05C473.014 1493.4 472.459 1493.9 472.037 1494.55C471.654 1495.2 471.463 1496.01 471.463 1496.96V1513.29H462.668V1503.52C463.16 1502.08 463.427 1500.53 463.427 1498.93C463.427 1497.33 463.16 1495.78 462.668 1494.33V1485.35H471.463V1487.42C472.049 1486.9 472.701 1486.47 473.417 1486.1C475.065 1485.22 476.923 1484.78 478.992 1484.78C480.947 1484.78 482.691 1485.22 484.224 1486.1C485.369 1486.74 486.341 1487.57 487.141 1488.58C487.998 1487.61 488.999 1486.83 490.144 1486.21C491.906 1485.26 493.88 1484.78 496.064 1484.78Z" fill="#544D4D"/>
<path d="M397.292 1484.78C398.633 1484.78 399.802 1484.99 400.799 1485.41C401.658 1485.73 402.423 1486.21 403.097 1486.84C401.085 1488.64 399.513 1490.91 398.562 1493.49L398.27 1493.86C397.886 1493.44 397.407 1493.11 396.832 1492.88C396.257 1492.65 395.606 1492.54 394.878 1492.54C393.422 1492.54 392.253 1493 391.372 1493.92C390.529 1494.8 390.107 1496.14 390.107 1497.94V1510.11L381.312 1513.04V1485.35H390.107V1487.48C391.832 1485.68 394.227 1484.78 397.292 1484.78Z" fill="#544D4D"/>
<path d="M415.048 1484.72C417.96 1484.72 420.566 1485.35 422.865 1486.62C425.164 1487.88 426.985 1489.63 428.326 1491.85C429.667 1494.03 430.338 1496.51 430.338 1499.27C430.338 1502.02 429.667 1504.52 428.326 1506.74C426.985 1508.96 425.164 1510.72 422.865 1512.03C420.566 1513.29 417.96 1513.92 415.048 1513.92C412.174 1513.92 409.568 1513.29 407.23 1512.03C404.931 1510.72 403.111 1508.96 401.77 1506.74C400.428 1504.52 399.758 1502.02 399.758 1499.27C399.758 1496.51 400.428 1494.03 401.77 1491.85C403.111 1489.67 404.931 1487.94 407.23 1486.68C409.53 1485.37 412.136 1484.72 415.048 1484.72ZM446.454 1484.72C449.366 1484.72 451.972 1485.35 454.271 1486.62C456.571 1487.88 458.391 1489.63 459.732 1491.85C461.074 1494.03 461.744 1496.51 461.744 1499.27C461.744 1502.02 461.074 1504.52 459.732 1506.74C458.391 1508.96 456.571 1510.72 454.271 1512.03C451.972 1513.29 449.366 1513.92 446.454 1513.92C443.58 1513.92 440.974 1513.29 438.637 1512.03C436.338 1510.72 434.517 1508.96 433.176 1506.74C431.835 1504.52 431.164 1502.02 431.164 1499.27C431.164 1496.51 431.835 1494.03 433.176 1491.85C434.517 1489.67 436.337 1487.94 438.637 1486.68C440.936 1485.37 443.542 1484.72 446.454 1484.72ZM415.048 1492.71C413.822 1492.71 412.73 1493 411.771 1493.58C410.814 1494.11 410.066 1494.88 409.529 1495.87C408.993 1496.87 408.725 1498.02 408.725 1499.32C408.725 1500.59 408.993 1501.74 409.529 1502.77C410.066 1503.77 410.813 1504.55 411.771 1505.13C412.729 1505.67 413.822 1505.93 415.048 1505.93C416.312 1505.93 417.424 1505.67 418.382 1505.13C419.34 1504.55 420.068 1503.77 420.566 1502.77C421.103 1501.74 421.371 1500.57 421.371 1499.27C421.371 1497.96 421.103 1496.83 420.566 1495.87C420.03 1494.88 419.282 1494.11 418.324 1493.58C417.405 1493 416.312 1492.71 415.048 1492.71ZM446.454 1492.71C445.228 1492.71 444.136 1493 443.178 1493.58C442.22 1494.11 441.472 1494.88 440.936 1495.87C440.399 1496.87 440.131 1498.02 440.131 1499.32C440.131 1500.59 440.399 1501.74 440.936 1502.77C441.472 1503.77 442.22 1504.55 443.178 1505.13C444.136 1505.67 445.228 1505.93 446.454 1505.93C447.719 1505.93 448.83 1505.67 449.788 1505.13C450.746 1504.55 451.474 1503.77 451.973 1502.77C452.509 1501.74 452.777 1500.57 452.777 1499.27C452.777 1497.96 452.509 1496.83 451.973 1495.87C451.436 1494.88 450.688 1494.11 449.73 1493.58C448.811 1493 447.719 1492.71 446.454 1492.71Z" fill="#544D4D"/>
<path d="M394.675 1448.7C394.156 1448.7 393.689 1448.58 393.273 1448.35C392.857 1448.11 392.528 1447.78 392.287 1447.38C392.046 1446.97 391.926 1446.5 391.926 1445.98C391.926 1445.47 392.043 1445.01 392.276 1444.6C392.517 1444.2 392.838 1443.87 393.24 1443.64C393.649 1443.4 394.105 1443.28 394.609 1443.28C395.091 1443.28 395.514 1443.39 395.879 1443.61C396.252 1443.83 396.54 1444.13 396.744 1444.52C396.956 1444.9 397.062 1445.34 397.062 1445.83C397.062 1445.9 397.058 1445.98 397.051 1446.07C397.044 1446.15 397.029 1446.25 397.007 1446.36H392.616V1445.54H396.482L396.12 1445.85C396.12 1445.5 396.058 1445.21 395.934 1444.97C395.81 1444.72 395.635 1444.53 395.408 1444.4C395.182 1444.26 394.908 1444.19 394.587 1444.19C394.251 1444.19 393.955 1444.26 393.7 1444.41C393.444 1444.55 393.247 1444.76 393.109 1445.02C392.97 1445.28 392.9 1445.59 392.9 1445.95C392.9 1446.32 392.973 1446.64 393.12 1446.92C393.266 1447.19 393.474 1447.4 393.744 1447.55C394.014 1447.7 394.324 1447.77 394.675 1447.77C394.967 1447.77 395.233 1447.72 395.474 1447.62C395.722 1447.51 395.934 1447.36 396.109 1447.16L396.744 1447.8C396.496 1448.09 396.19 1448.32 395.825 1448.47C395.467 1448.62 395.083 1448.7 394.675 1448.7Z" fill="#544D4D"/>
<path d="M389.727 1448.59V1445.56C389.727 1445.17 389.602 1444.84 389.354 1444.58C389.106 1444.33 388.785 1444.2 388.391 1444.2C388.128 1444.2 387.894 1444.26 387.69 1444.38C387.485 1444.49 387.325 1444.65 387.208 1444.86C387.091 1445.06 387.033 1445.3 387.033 1445.56L386.627 1445.33C386.627 1444.94 386.715 1444.58 386.89 1444.28C387.065 1443.97 387.31 1443.73 387.624 1443.56C387.938 1443.37 388.292 1443.28 388.686 1443.28C389.08 1443.28 389.427 1443.37 389.727 1443.54C390.033 1443.72 390.274 1443.96 390.449 1444.28C390.625 1444.59 390.712 1444.95 390.712 1445.36V1448.59H389.727ZM386.047 1448.59V1440.77H387.033V1448.59H386.047Z" fill="#544D4D"/>
<path d="M382.594 1448.59V1441.21H383.579V1448.59H382.594ZM381.312 1444.29V1443.39H384.861V1444.29H381.312Z" fill="#544D4D"/>
</svg>