<svg xmlns="http://www.w3.org/2000/svg" viewBox="0 0 32 32" fill="none"><g transform="translate(-1015 -2038)"><path d="M1019.37 2040.47L1021.85 2042.97H1020.49V2058.01H1033.02L1016 2040.92L1017.91 2039L1044.86 2066.08L1042.96 2068L1035.74 2060.75H1038.19L1039.55 2062.12V2064.85H1023.22V2062.12L1024.58 2060.75H1020.49C1019.74 2060.75 1019.1 2060.48 1018.57 2059.95C1018.04 2059.41 1017.77 2058.77 1017.77 2058.01V2042.97C1017.77 2042.12 1018.04 2041.5 1018.57 2041.09L1019.37 2040.47ZM1042.28 2040.23C1043.03 2040.23 1043.67 2040.5 1044.2 2041.04C1044.73 2041.57 1045 2042.22 1045 2042.97V2058.01C1045 2058.61 1044.84 2059.13 1044.51 2059.59C1044.18 2060.04 1043.75 2060.36 1043.23 2060.54L1042.28 2059.59V2042.97H1025.73L1023.01 2040.23H1042.28Z" fill="currentColor"/></g></svg>